Coordinates
version=1
nRows=22
nColumns=24
inDegrees=yes

Units are S.I. units (second, meters, Newtons, ...)
Angles are in degrees.

endheader
time	pelvis_tilt	pelvis_list	pelvis_rotation	pelvis_tx	pelvis_ty	pelvis_tz	hip_flexion_r	hip_adduction_r	hip_rotation_r	knee_angle_r	ankle_angle_r	subtalar_angle_r	mtp_angle_r	hip_flexion_l	hip_adduction_l	hip_rotation_l	knee_angle_l	ankle_angle_l	subtalar_angle_l	mtp_angle_l	lumbar_extension	lumbar_bending	lumbar_rotation
      1.53766667	     -4.91061754	      1.50345403	     -4.19133245	      0.52843358	      1.07501027	      0.29879580	     23.92683415	     -4.52904396	     -6.46042445	    -63.56514003	      5.02800899	     -2.84082246	      6.58925128	      9.84779342	      3.57112576	      1.34562141	    -11.37292014	      9.18428229	      3.43832171	      1.40414726	     -3.71053341	     -1.26962261	     -1.01738950
      1.54183333	     -4.91356267	      1.44235227	     -4.05513107	      0.53332433	      1.07539846	      0.29842389	     24.32262178	     -4.45088954	     -6.65488300	    -62.88981871	      5.30302715	     -2.69084293	      6.62369273	      9.37713821	      3.54848283	      1.45376243	    -10.98352832	      9.24316215	      3.50511869	      1.42045803	     -3.70445294	     -1.18450886	     -1.11689672
      1.54600000	     -4.94349684	      1.39106474	     -3.92400856	      0.53820040	      1.07567860	      0.29808618	     24.74634760	     -4.37569834	     -6.83617958	    -62.19935533	      5.57508428	     -2.62027056	      6.64082892	      8.94490507	      3.52827611	      1.53980023	    -10.60719400	      9.27777194	      3.61057843	      1.42867612	     -3.67377855	     -1.11483544	     -1.17940056
      1.55016667	     -4.95675457	      1.33951073	     -3.78896275	      0.54305712	      1.07595160	      0.29775430	     25.13811123	     -4.30374722	     -7.01622118	    -61.47225021	      5.85123308	     -2.48481745	      6.66412751	      8.49963112	      3.50946657	      1.65805817	    -10.24267341	      9.33045204	      3.65052870	      1.44139264	     -3.65984946	     -1.06240652	     -1.32609630
      1.55433333	     -4.97095083	      1.29177967	     -3.66800430	      0.54791224	      1.07617220	      0.29744089	     25.52952197	     -4.23158817	     -7.18291971	    -60.73115055	      6.09904534	     -2.44042874	      6.67873384	      8.05252237	      3.49100495	      1.75852497	     -9.86930144	      9.38330089	      3.72565990	      1.45147346	     -3.64968826	     -0.98488741	     -1.41750253
      1.55850000	     -4.97740162	      1.25821580	     -3.54810073	      0.55274323	      1.07635564	      0.29714002	     25.90683892	     -4.17645093	     -7.34061694	    -59.96669065	      6.33200733	     -2.36427431	      6.70031456	      7.59934481	      3.48939714	      1.89884832	     -9.49775268	      9.44667408	      3.70874348	      1.47176294	     -3.64256897	     -0.93763788	     -1.61019150
      1.56266667	     -4.99913878	      1.21911755	     -3.43400236	      0.55755288	      1.07647564	      0.29688545	     26.29143818	     -4.10324199	     -7.48204971	    -59.17489131	      6.56969256	     -2.37249791	      6.70988339	      7.18129559	      3.47186962	      1.98647038	     -9.16327387	      9.49578813	      3.77554393	      1.48366087	     -3.62741661	     -0.89970542	     -1.67185458
      1.56683333	     -5.02842752	      1.18735121	     -3.32734547	      0.56236143	      1.07652608	      0.29664279	     26.67911285	     -4.03704524	     -7.61381517	    -58.36668355	      6.78745270	     -2.38741293	      6.71601470	      6.77281656	      3.46070502	      2.07949091	     -8.83224110	      9.56823224	      3.82647748	      1.49671808	     -3.60245690	     -0.85969511	     -1.75364682
      1.57100000	     -5.06703349	      1.17295367	     -3.23525159	      0.56716575	      1.07649714	      0.29643453	     27.07905267	     -3.98258397	     -7.72351872	    -57.55328609	      6.99445941	     -2.43680818	      6.71799382	      6.37618305	      3.46406449	      2.15375082	     -8.50221528	      9.65618054	      3.90379614	      1.50576835	     -3.56345711	     -0.83453359	     -1.80485723
      1.57516667	     -5.09657956	      1.13157981	     -3.12717563	      0.57194346	      1.07647771	      0.29621812	     27.44195584	     -3.90002493	     -7.84163318	    -56.68523105	      7.18163254	     -2.50994228	      6.71603832	      5.98673232	      3.43922792	      2.25643118	     -8.21026813	      9.73291404	      3.93076203	      1.51899474	     -3.54358551	     -0.79152067	     -1.89909090
      1.57933333	     -5.12495320	      1.10836105	     -3.03232625	      0.57672595	      1.07641258	      0.29603564	     27.80255462	     -3.83218773	     -7.94108379	    -55.80854253	      7.34907393	     -2.62447740	      6.70859262	      5.59064388	      3.43057457	      2.35780794	     -7.90520357	      9.81625852	      3.95296904	      1.53482502	     -3.51954246	     -0.76327447	     -1.99340905
      1.58350000	     -5.16760114	      1.11392198	     -2.95472005	      0.58149008	      1.07623478	      0.29589632	     28.18843107	     -3.78766992	     -8.01428355	    -54.94322903	      7.53047020	     -2.73980440	      6.70272760	      5.21542241	      3.44841140	      2.42823045	     -7.60636752	      9.91877038	      4.01850560	      1.54498022	     -3.48173348	     -0.76707615	     -2.03773505
      1.58766667	     -5.20916913	      1.09365425	     -2.86028963	      0.58623540	      1.07606092	      0.29575157	     28.54469884	     -3.71186684	     -8.08936077	    -54.02061914	      7.66110155	     -2.92813722	      6.68608572	      4.85687335	      3.43832176	      2.52678242	     -7.34831264	     10.00672521	      4.03150171	      1.56030711	     -3.44999843	     -0.74835624	     -2.11345767
      1.59183333	     -5.25154088	      1.10736302	     -2.78747881	      0.59099137	      1.07580799	      0.29565480	     28.91214722	     -3.66883720	     -8.14385029	    -53.11663193	      7.81719924	     -3.09965439	      6.67233255	      4.48767703	      3.46040580	      2.60319225	     -7.06237111	     10.11451512	      4.08227123	      1.57199891	     -3.41660683	     -0.76703661	     -2.16121165
      1.59600000	     -5.27948158	      1.11032241	     -2.70719340	      0.59571395	      1.07557305	      0.29555771	     29.24407599	     -3.60865926	     -8.18517851	    -52.16551915	      7.88361513	     -3.36623029	      6.63317029	      4.11563373	      3.47268203	      2.71574997	     -6.80490666	     10.20902559	      4.05896670	      1.59432753	     -3.39733060	     -0.77909111	     -2.24781495
      1.60016667	     -5.31342398	      1.11897124	     -2.63018537	      0.60043880	      1.07526397	      0.29548244	     29.57742388	     -3.55275130	     -8.22089085	    -51.21058571	      8.01507349	     -3.60119917	      6.60234292	      3.75766684	      3.48727349	      2.79890694	     -6.56192631	     10.30885259	      4.08771480	      1.61059425	     -3.38225687	     -0.79465486	     -2.28471412
      1.60433333	     -5.35262127	      1.14397493	     -2.56073749	      0.60516070	      1.07490139	      0.29542587	     29.91423920	     -3.50910619	     -8.23912861	    -50.24706739	      8.10725332	     -3.86867162	      6.56609576	      3.40629566	      3.51800824	      2.87980215	     -6.32056287	     10.41842318	      4.11439801	      1.62660675	     -3.35803546	     -0.83443277	     -2.32329595
      1.60850000	     -5.39102083	      1.16959664	     -2.49328723	      0.60988178	      1.07450255	      0.29538535	     30.23962097	     -3.46194578	     -8.24771593	    -49.26433645	      8.18316765	     -4.15659567	      6.52499278	      3.05688898	      3.54796480	      2.95948956	     -6.08591135	     10.53312468	      4.13912560	      1.64213807	     -3.33330063	     -0.87468788	     -2.35701445
      1.61266667	     -5.43100233	      1.20745871	     -2.42951190	      0.61460376	      1.07405152	      0.29536680	     30.56253049	     -3.42433764	     -8.24536989	    -48.27520237	      8.24918091	     -4.45330870	      6.47880301	      2.71207599	      3.58895865	      3.03737102	     -5.85806671	     10.64943126	      4.15940203	      1.65731231	     -3.30945065	     -0.93009193	     -2.38875139
      1.61683333	     -5.45253153	      1.26386521	     -2.36857206	      0.61930706	      1.07358472	      0.29536155	     30.86427629	     -3.40497669	     -8.23108319	    -47.28351983	      8.31333328	     -4.75318942	      6.42947969	      2.34859370	      3.65000370	      3.11493062	     -5.62905616	     10.76306858	      4.18098979	      1.67145545	     -3.30937983	     -1.01022087	     -2.41683325
      1.62100000	     -5.49220965	      1.30190096	     -2.30598199	      0.62403603	      1.07306988	      0.29536423	     31.16690843	     -3.36405795	     -8.22103513	    -46.26306744	      8.36022724	     -5.05366609	      6.38032759	      2.00491684	      3.68839234	      3.19413639	     -5.40654764	     10.88278533	      4.20312516	      1.68379435	     -3.29711465	     -1.06752384	     -2.43758078
      1.62516667	     -5.52259080	      1.37244929	     -2.24858037	      0.62874316	      1.07250766	      0.29538879	     31.46455467	     -3.35261306	     -8.18719704	    -45.25134715	      8.40712459	     -5.34849162	      6.33047069	      1.65595234	      3.76179955	      3.26761999	     -5.19084010	     11.00110074	      4.22571892	      1.69479874	     -3.28990227	     -1.16606549	     -2.46065411
